<?xml version="1.0" encoding="utf-8"?>
<!-- Generator: Adobe Illustrator 25.4.1, SVG Export Plug-In . SVG Version: 6.00 Build 0)  -->
<svg version="1.1" id="Layer_1" xmlns="http://www.w3.org/2000/svg" xmlns:xlink="http://www.w3.org/1999/xlink" x="0px" y="0px"
	 viewBox="0 0 636.97 456" style="enable-background:new 0 0 636.97 456;" xml:space="preserve">
<style type="text/css">
	.st0{fill:#DA772D;}
</style>
<path class="st0" d="M250.69,182.99c-8.3-7.66-20.25-11.98-35.66-10.79c-8.14,0.63-15.98,4.83-19.14,8.24v-50.87l-31.78,5.52v148.48
	h31.81v-54.93c-0.62-21.9,7.62-27.18,20.01-27.18c12.13,0,18.83,8.17,18.83,25.7v56.31h30.48V221.9
	C265.25,203.83,259.98,191.56,250.69,182.99z M112.03,256.06c8.67-0.4,17.07-3.14,24.31-7.92l5.39-3.54l13.94,23.89l-4.7,3.23
	c-12.8,8.8-27.97,13.49-43.5,13.47c-12.07-0.01-23.97-2.85-34.74-8.3c-10.77-5.45-20.11-13.34-27.27-23.06s-11.94-20.98-13.95-32.87
	c-2.01-11.9-1.2-24.1,2.36-35.63c3.57-11.53,9.79-22.06,18.17-30.75c8.38-8.69,18.68-15.28,30.07-19.26
	c11.39-3.98,23.56-5.23,35.53-3.64c11.96,1.58,23.39,5.95,33.35,12.76l4.68,3.22l-13.94,23.93l-5.39-3.54
	c-7.24-4.79-15.64-7.53-24.31-7.92c-8.67-0.4-17.28,1.56-24.93,5.67c-7.64,4.11-14.03,10.21-18.49,17.66
	c-4.45,7.45-6.8,15.97-6.8,24.64c0,8.68,2.35,17.2,6.8,24.64c4.45,7.45,10.84,13.55,18.49,17.66
	C94.75,254.49,103.36,256.45,112.03,256.06z M581.7,180.08l-0.17,0.78l-0.61-0.51c-7.09-5.87-16.34-8.72-28.27-8.72
	c-29.87,0-54.17,25.05-54.17,55.84s24.3,55.84,54.17,55.84c7.43,0.03,14.77-1.54,21.54-4.59l1.01-0.45l-0.35,1.05
	c-3.78,11.13-13.91,18.31-26.46,18.71h-1.53c-7.2,0.18-14.21-2.38-19.59-7.17l-1.42-1.22l-17.32,19.66l1.25,1.23
	c11.02,10.91,27.73,15.87,38.58,15.87c33.98,0,58.64-24.59,58.64-58.47v-96.03h-23.55L581.7,180.08z M555.12,254.16
	c-13.84,0-25.1-11.98-25.1-26.7c0-14.72,11.25-26.7,25.1-26.7c13.84,0,25.11,11.98,25.11,26.7
	C580.23,242.18,568.98,254.16,555.12,254.16z M467.25,180.08l-0.18,0.82l-0.64-0.53c-7.09-5.86-16.3-8.71-28.25-8.71
	c-29.87,0-54.16,25.04-54.16,55.82c0,30.78,24.29,55.82,54.16,55.82c7.42,0.03,14.75-1.53,21.52-4.58l1.06-0.48l-0.37,1.1
	c-3.76,11.16-13.88,18.35-26.43,18.76h-1.52c-7.21,0.19-14.22-2.38-19.61-7.18l-1.38-1.21l-17.3,19.64l1.23,1.22
	c11.02,10.9,27.71,15.86,38.56,15.86c33.96,0,58.61-24.58,58.61-58.45v-96.04h-23.57L467.25,180.08z M440.69,254.18
	c-13.86,0-25.13-11.99-25.13-26.72c0-14.74,11.27-26.72,25.13-26.72c13.86,0,25.13,11.99,25.13,26.72
	C465.82,242.19,454.55,254.18,440.69,254.18z M271.31,228.55c0-32.11,23.46-57.26,53.4-57.26c29.82,0,53.17,25.15,53.17,57.26
	c-0.01,4.09-0.29,8.18-0.82,12.24h-73.79l0.32,1.08c1.49,4.91,4.67,9.14,8.96,11.95c4.19,2.8,9.06,4.42,14.09,4.69
	c11.39,0.62,19.98-2.61,26.94-10.19l18.86,13.01c-2.53,3.93-17.3,24.49-45.77,24.49C296.12,285.81,271.31,260.12,271.31,228.55z
	 M300.55,219.16l-0.09,0.92h50.61l-0.05-0.89c-0.85-15.52-13.82-23.89-25.58-23.89c-6.09,0.06-11.94,2.4-16.39,6.56
	C304.17,206.38,301.14,212.54,300.55,219.16z"/>
</svg>
